<svg xmlns="http://www.w3.org/2000/svg" width="30" height="30" viewBox="0 0 30 30">
  <g id="Group_8" data-name="Group 8" transform="translate(-447.034 -76.109)">
    <path id="Path_2" data-name="Path 2" d="M477.034,91.109c0,.761-1.471,1.4-1.585,2.126-.117.748,1.084,1.806.855,2.511s-1.828.867-2.166,1.53.472,2.049.033,2.652-2,.256-2.533.785-.179,2.092-.785,2.533-1.982-.374-2.652-.033-.812,1.934-1.529,2.166-1.763-.972-2.511-.855c-.729.114-1.365,1.585-2.126,1.585s-1.4-1.471-2.126-1.585c-.748-.117-1.806,1.083-2.511.855s-.867-1.828-1.53-2.166-2.049.472-2.652.033-.256-2-.785-2.533-2.092-.179-2.533-.785.374-1.982.033-2.652-1.934-.812-2.166-1.529.972-1.763.855-2.511c-.114-.729-1.585-1.365-1.585-2.126s1.471-1.4,1.585-2.126c.117-.748-1.083-1.806-.855-2.511s1.828-.867,2.166-1.53-.472-2.049-.033-2.652,2-.256,2.533-.785.179-2.092.785-2.533,1.982.374,2.652.033.812-1.934,1.529-2.166,1.763.972,2.511.855c.729-.114,1.365-1.585,2.126-1.585s1.4,1.471,2.126,1.585c.748.117,1.806-1.083,2.511-.855s.867,1.828,1.53,2.166,2.049-.472,2.652-.033.256,2,.785,2.533,2.092.179,2.533.785-.374,1.982-.033,2.652,1.934.812,2.166,1.529-.972,1.763-.855,2.511C475.564,89.712,477.034,90.348,477.034,91.109Z" transform="translate(0 0)" fill="#fff"/>
    <circle id="Ellipse_3" data-name="Ellipse 3" cx="12.068" cy="12.068" r="12.068" transform="translate(449.966 79.041)" fill="#fff"/>
    <g id="Group_1" data-name="Group 1" transform="translate(450.261 79.337)">
      <path id="Path_3" data-name="Path 3" d="M488.807,129.655a11.772,11.772,0,1,1,11.773-11.772A11.786,11.786,0,0,1,488.807,129.655Zm0-23.19a11.417,11.417,0,1,0,11.418,11.417A11.43,11.43,0,0,0,488.807,106.465Z" transform="translate(-477.034 -106.11)" fill="#424242"/>
    </g>
    <g id="Group_2" data-name="Group 2" transform="translate(458.494 97.13)">
      <path id="Path_4" data-name="Path 4" d="M579.4,272.058l-.275-.551-.271.554-.609.091.443.428-.1.608.544-.289.547.285-.107-.607.439-.432Z" transform="translate(-575.585 -271.506)" fill="#424242"/>
      <path id="Path_5" data-name="Path 5" d="M564.666,271.9l-.2-.4-.194.4-.438.065.318.307-.073.436.391-.207.392.2-.077-.436.316-.31Z" transform="translate(-562.731 -271.506)" fill="#424242"/>
      <path id="Path_6" data-name="Path 6" d="M554.15,271.791l-.142-.284-.139.285-.314.047.228.221-.052.313.28-.149.282.147-.055-.313.227-.223Z" transform="translate(-553.555 -271.506)" fill="#424242"/>
      <path id="Path_7" data-name="Path 7" d="M598.122,271.9l-.2-.4-.194.4-.438.065.318.307-.073.436.391-.207.392.2-.077-.436.316-.31Z" transform="translate(-592.587 -271.506)" fill="#424242"/>
      <path id="Path_8" data-name="Path 8" d="M611.507,271.791l-.142-.284-.139.285-.314.047.228.221-.052.313.281-.149.282.147-.055-.313.227-.223Z" transform="translate(-604.741 -271.506)" fill="#424242"/>
    </g>
    <g id="Group_4" data-name="Group 4" transform="translate(452.906 95.198)">
      <g id="Group_3" data-name="Group 3" transform="translate(0 0)">
        <path id="Path_9" data-name="Path 9" d="M501.612,254.679l1-1.132.1.172-.5.551c-.136.152-.259.286-.385.4l0,0c.164-.049.35-.09.544-.13l.734-.151.1.171-1.5.286Z" transform="translate(-501.612 -253.547)" fill="#424242"/>
        <path id="Path_10" data-name="Path 10" d="M507.286,264.582l-.335-.446-.414.311.374.5-.124.093-.485-.645,1.147-.863.466.62-.124.093-.355-.472-.363.273.335.446Z" transform="translate(-505.797 -262.455)" fill="#424242"/>
        <path id="Path_11" data-name="Path 11" d="M513.753,270.752a1.936,1.936,0,0,1,.266.238.586.586,0,0,1,.2.383.358.358,0,0,1-.121.269.377.377,0,0,1-.452.055l0,0a.358.358,0,0,1-.066.352,2.283,2.283,0,0,0-.211.351l-.132-.139a1.858,1.858,0,0,1,.184-.3c.115-.167.117-.274.006-.4l-.12-.127-.452.427-.127-.135Zm-.349.583.13.138a.282.282,0,0,0,.42.048c.135-.127.1-.28-.031-.424a.767.767,0,0,0-.138-.122Z" transform="translate(-511.527 -268.901)" fill="#424242"/>
        <path id="Path_12" data-name="Path 12" d="M521.672,277.908l-.958,1.069-.138-.124.958-1.069Z" transform="translate(-518.536 -275.176)" fill="#424242"/>
        <path id="Path_13" data-name="Path 13" d="M527.278,280.043l-.347-.265.1-.125.845.645-.1.125-.349-.266-.775,1.015-.149-.114Z" transform="translate(-523.825 -276.845)" fill="#424242"/>
        <path id="Path_14" data-name="Path 14" d="M531.352,287.827l-.363.307-.164-.1,1.165-.97.191.117-.331,1.48-.169-.1.1-.465Zm.477.122.1-.426c.022-.1.048-.18.073-.262l0,0c-.063.062-.128.124-.2.184l-.337.281Z" transform="translate(-527.682 -283.458)" fill="#424242"/>
        <path id="Path_15" data-name="Path 15" d="M542.572,292.836a.656.656,0,0,0,.263.223c.172.079.315.034.375-.1s.018-.224-.127-.372c-.179-.173-.26-.343-.176-.527a.414.414,0,0,1,.584-.162.653.653,0,0,1,.259.2l-.109.116a.573.573,0,0,0-.22-.175c-.178-.081-.295-.006-.335.083-.056.122,0,.218.145.37.182.186.246.344.158.536a.433.433,0,0,1-.629.167.741.741,0,0,1-.3-.235Z" transform="translate(-538.069 -287.725)" fill="#424242"/>
        <path id="Path_16" data-name="Path 16" d="M550.254,305.374a3.066,3.066,0,0,0,.3-.434l.2.052a2.592,2.592,0,0,1-.369.416Z" transform="translate(-545.021 -299.411)" fill="#424242"/>
        <path id="Path_17" data-name="Path 17" d="M561.156,296.932l.18.043-.294,1.246.6.141-.036.151-.777-.183Z" transform="translate(-554.456 -292.265)" fill="#424242"/>
        <path id="Path_18" data-name="Path 18" d="M570.843,298.806l-.221,1.418-.183-.029.221-1.418Z" transform="translate(-563.034 -293.911)" fill="#424242"/>
        <path id="Path_19" data-name="Path 19" d="M575.733,299.524a1.79,1.79,0,0,1,.34-.006.593.593,0,0,1,.386.132.3.3,0,0,1,.1.261.341.341,0,0,1-.264.3v0a.37.37,0,0,1,.27.38.387.387,0,0,1-.141.278.721.721,0,0,1-.5.1,2.186,2.186,0,0,1-.286-.037Zm.1,1.285a.987.987,0,0,0,.155.02c.191.013.372-.044.387-.253s-.148-.288-.35-.3l-.153-.011Zm.048-.686.168.012c.2.014.317-.08.327-.218.012-.168-.111-.243-.3-.256a.793.793,0,0,0-.165,0Z" transform="translate(-567.671 -294.568)" fill="#424242"/>
        <path id="Path_20" data-name="Path 20" d="M587.216,300.477l-.557.021.02.517.621-.024.006.155-.806.031-.055-1.434.775-.03.006.155-.589.023.018.453.557-.022Z" transform="translate(-577.317 -294.747)" fill="#424242"/>
        <path id="Path_21" data-name="Path 21" d="M595.426,298.919a1.926,1.926,0,0,1,.347-.082.587.587,0,0,1,.428.054.358.358,0,0,1,.152.253.377.377,0,0,1-.213.4v.006a.358.358,0,0,1,.252.255,2.272,2.272,0,0,0,.168.373l-.19.029a1.868,1.868,0,0,1-.146-.325c-.071-.189-.158-.252-.326-.233l-.173.026.093.615-.183.028Zm.28.619.187-.028c.2-.029.3-.156.28-.318-.028-.183-.172-.243-.366-.216a.763.763,0,0,0-.179.044Z" transform="translate(-585.334 -293.952)" fill="#424242"/>
        <path id="Path_22" data-name="Path 22" d="M607.114,296.611a.672.672,0,0,1-.428.912.658.658,0,0,1-.823-.518.682.682,0,0,1,.429-.91A.653.653,0,0,1,607.114,296.611Zm-1.062.334c.086.294.322.511.6.43s.366-.388.275-.7c-.08-.274-.306-.518-.6-.432S605.963,296.643,606.052,296.945Z" transform="translate(-594.612 -291.492)" fill="#424242"/>
        <path id="Path_23" data-name="Path 23" d="M618.279,293.237a.656.656,0,0,0,.342-.048c.174-.076.235-.212.177-.345s-.155-.162-.362-.153c-.248.018-.429-.035-.51-.22a.413.413,0,0,1,.269-.543.652.652,0,0,1,.319-.063l.014.159a.572.572,0,0,0-.277.047c-.179.079-.2.216-.162.305.054.123.16.148.372.139.26-.012.42.046.5.239s.016.444-.295.58a.741.741,0,0,1-.372.063Z" transform="translate(-605.384 -287.742)" fill="#424242"/>
        <path id="Path_24" data-name="Path 24" d="M630.859,299.643a3.045,3.045,0,0,0-.126-.509l.174-.117a2.6,2.6,0,0,1,.064.552Z" transform="translate(-616.842 -294.125)" fill="#424242"/>
        <path id="Path_25" data-name="Path 25" d="M632.013,283l.633-.443.089.127-.482.337.273.391.445-.311.088.126-.445.311.372.532-.152.106Z" transform="translate(-617.984 -279.433)" fill="#424242"/>
        <path id="Path_26" data-name="Path 26" d="M641.288,279.781l.182.439-.145.125-.568-1.4.169-.146,1.308.767-.15.129-.411-.242Zm.262-.417-.376-.221c-.085-.05-.157-.1-.227-.15l0,0c.04.078.079.16.115.244l.165.406Z" transform="translate(-625.788 -276.078)" fill="#424242"/>
        <path id="Path_27" data-name="Path 27" d="M649.8,269.429a.92.92,0,0,1-.2.327.671.671,0,0,1-1.014.04.714.714,0,0,1-.057-1.061.769.769,0,0,1,.276-.21l.082.134a.676.676,0,0,0-.238.175.534.534,0,0,0,.064.812.522.522,0,0,0,.8-.023.746.746,0,0,0,.158-.264Z" transform="translate(-632.529 -266.913)" fill="#424242"/>
        <path id="Path_28" data-name="Path 28" d="M653.472,265.608l1.146.864-.112.148-1.146-.864Z" transform="translate(-637.035 -264.311)" fill="#424242"/>
        <path id="Path_29" data-name="Path 29" d="M658.645,256.381a.673.673,0,0,1,.3.963.658.658,0,0,1-.958.173.682.682,0,0,1-.3-.962A.654.654,0,0,1,658.645,256.381Zm-.559.964a.513.513,0,0,0,.735-.089c.153-.251.008-.534-.271-.7a.516.516,0,0,0-.737.088C657.654,256.9,657.817,257.181,658.086,257.345Z" transform="translate(-640.811 -255.959)" fill="#424242"/>
      </g>
    </g>
    <g id="Group_6" data-name="Group 6" transform="translate(452.91 80.561)">
      <g id="Group_5" data-name="Group 5" transform="translate(0 0)">
        <path id="Path_30" data-name="Path 30" d="M503.017,162.709a.985.985,0,0,0,.378-.354.386.386,0,0,0-.081-.575c-.172-.1-.33-.065-.576.126-.288.236-.557.328-.816.171a.62.62,0,0,1-.14-.9.979.979,0,0,1,.336-.353l.154.183a.857.857,0,0,0-.3.3.348.348,0,0,0,.066.514c.172.1.325.043.577-.151.309-.239.555-.307.826-.143a.65.65,0,0,1,.14.966,1.113,1.113,0,0,1-.4.4Z" transform="translate(-501.654 -156.163)" fill="#424242"/>
        <path id="Path_31" data-name="Path 31" d="M508.24,146.779l-.429.495-.179-.155,1.043-1.2.179.155-.431.5,1.449,1.255-.184.212Z" transform="translate(-506.989 -142.856)" fill="#424242"/>
        <path id="Path_32" data-name="Path 32" d="M523.592,140.716l.261.664-.221.184-.812-2.124.258-.214,1.94,1.187-.228.19-.61-.374Zm.4-.618-.558-.342c-.127-.078-.233-.155-.337-.231l0,0c.057.119.114.242.165.369l.236.614Z" transform="translate(-520.542 -136.887)" fill="#424242"/>
        <path id="Path_33" data-name="Path 33" d="M531.453,127.953l-.565.331-.119-.2,1.376-.8.119.2-.568.332.967,1.655-.243.142Z" transform="translate(-527.636 -126.222)" fill="#424242"/>
        <path id="Path_34" data-name="Path 34" d="M548.908,122.935l-.784.293.272.727.874-.327.082.218-1.134.424-.755-2.017,1.089-.408.082.218-.829.31.238.637.784-.293Z" transform="translate(-542.535 -121.378)" fill="#424242"/>
        <path id="Path_35" data-name="Path 35" d="M571.85,119.554a1.377,1.377,0,0,1-.556.158,1.006,1.006,0,0,1-1.166-.979,1.072,1.072,0,0,1,1.008-1.237,1.156,1.156,0,0,1,.518.045l-.044.232a1.013,1.013,0,0,0-.441-.046.8.8,0,0,0-.749.967.783.783,0,0,0,.909.78,1.113,1.113,0,0,0,.443-.134Z" transform="translate(-562.755 -117.488)" fill="#424242"/>
        <path id="Path_36" data-name="Path 36" d="M588.948,119.123a1.008,1.008,0,0,1-1.118,1.018.987.987,0,0,1-.843-1.192,1.023,1.023,0,0,1,1.118-1.015A.98.98,0,0,1,588.948,119.123Zm-1.664-.148c-.05.457.152.894.587.942s.73-.328.784-.813c.047-.425-.126-.894-.587-.945S587.335,118.5,587.283,118.975Z" transform="translate(-577.799 -117.88)" fill="#424242"/>
        <path id="Path_37" data-name="Path 37" d="M606.4,120.907l.265.085-.586,1.828.876.281-.071.222-1.141-.366Z" transform="translate(-594.546 -120.539)" fill="#424242"/>
        <path id="Path_38" data-name="Path 38" d="M618.683,126.27l.247.127-.876,1.708.818.42-.107.207-1.065-.547Z" transform="translate(-605.216 -125.325)" fill="#424242"/>
        <path id="Path_39" data-name="Path 39" d="M630.318,135.573l-.671-.5-.463.623.748.557-.139.187-.971-.723,1.286-1.727.933.694-.139.187-.71-.528-.407.546.672.5Z" transform="translate(-615.14 -132.215)" fill="#424242"/>
        <path id="Path_40" data-name="Path 40" d="M642.966,149.782a2.013,2.013,0,0,1-.532-.411,1.011,1.011,0,0,1,.063-1.549,1.08,1.08,0,0,1,1.607.117,1.328,1.328,0,0,1,.287.464l-.213.1a1.117,1.117,0,0,0-.251-.415.805.805,0,0,0-1.223-.06.789.789,0,0,0-.086,1.2.906.906,0,0,0,.291.236l.476-.431-.294-.324.166-.15.476.526Z" transform="translate(-626.994 -144.287)" fill="#424242"/>
        <path id="Path_41" data-name="Path 41" d="M652.067,162.442l-.431-.717-.665.4.48.8-.2.12-.623-1.038,1.845-1.109.6,1-.2.12-.455-.758-.583.35.431.717Z" transform="translate(-634.601 -156.227)" fill="#424242"/>
      </g>
    </g>
    <g id="Group_7" data-name="Group 7" transform="translate(454.934 86.539)">
      <path id="Path_42" data-name="Path 42" d="M534.617,175.531l-7.021-2.467a.079.079,0,0,0-.052,0l-7.021,2.467a.079.079,0,0,0,0,.149l.176.062v4.8a.218.218,0,0,0-.137.2.209.209,0,0,1,0,.355v.133a1.264,1.264,0,0,0,.344.866l.093.1v-1.1a.209.209,0,0,1,0-.355.218.218,0,0,0-.137-.2V175.8l6.681,2.347a.079.079,0,0,0,.052,0l7.021-2.467A.079.079,0,0,0,534.617,175.531Z" transform="translate(-520.47 -173.06)" fill="#2c4563"/>
      <path id="Path_43" data-name="Path 43" d="M547.188,210.879V213.7h0c0,.8,1.892,1.454,4.225,1.454s4.225-.651,4.225-1.454h0v-2.819l-4.225,1.484Z" transform="translate(-544.314 -206.81)" fill="#2c4563"/>
    </g>
  </g>
</svg>
