<svg xmlns="http://www.w3.org/2000/svg" width="222" height="222" viewBox="0 0 222 222"><g transform="translate(-572 -135)"><g transform="translate(572 135)" fill="#fff" stroke="#1c60b3" stroke-width="1" stroke-dasharray="41 7"><circle cx="111" cy="111" r="111" stroke="none"/><circle cx="111" cy="111" r="110.5" fill="none"/></g><g transform="translate(625 196.453)" opacity="0.9"><path d="M27.367,12.375H42.333a3.742,3.742,0,0,1,3.742,3.742V23.6H23.625V16.117A3.742,3.742,0,0,1,27.367,12.375Z" transform="translate(51.21 21.3)" fill="#1c60b3"/><path d="M39.717,14.233A7.483,7.483,0,1,1,32.233,6.75,7.483,7.483,0,0,1,39.717,14.233Z" transform="translate(53.826 8.217)" fill="#1c60b3"/><path d="M70.384,62.117h-44.9A7.49,7.49,0,0,1,18,54.634V9.733A7.49,7.49,0,0,1,25.483,2.25h44.9a7.49,7.49,0,0,1,7.483,7.483v44.9a7.493,7.493,0,0,1-7.483,7.483ZM25.483,9.733v44.9h44.9l0-44.9Z" transform="translate(38.126 -2.25)" fill="#1c60b3"/><path d="M53.509,57.3H46.026V42.334A11.022,11.022,0,0,0,34.8,31.109H19.834A11.022,11.022,0,0,0,8.609,42.334V57.3H1.126V42.334A18.526,18.526,0,0,1,19.834,23.626H34.8A18.526,18.526,0,0,1,53.509,42.334Z" transform="translate(-1.125 47.466)" fill="#1c60b3"/><path d="M22.083,17.608A11.225,11.225,0,1,1,10.858,28.833,11.225,11.225,0,0,1,22.083,17.608m0-7.483A18.708,18.708,0,1,0,40.792,28.833,18.708,18.708,0,0,0,22.083,10.125Z" transform="translate(4.109 16.067)" fill="#1c60b3"/></g></g></svg>